<?xml version="1.0" standalone="no"?>
<!DOCTYPE svg PUBLIC "-//W3C//DTD SVG 20010904//EN"
 "http://www.w3.org/TR/2001/REC-SVG-20010904/DTD/svg10.dtd">
<svg version="1.0" xmlns="http://www.w3.org/2000/svg"
 width="900.000000pt" height="500.000000pt" viewBox="0 0 900.000000 500.000000"
 preserveAspectRatio="xMidYMid meet">

<g transform="translate(0.000000,500.000000) scale(0.100000,-0.100000)"
fill="#000000" stroke="none">
<path d="M1193 3903 c9 -2 17 -11 17 -19 0 -8 6 -14 14 -14 8 0 17 -8 19 -17
4 -14 5 -12 6 5 1 13 -5 22 -14 22 -8 0 -15 7 -15 15 0 9 -9 15 -22 14 -17 -1
-19 -2 -5 -6z"/>
<path d="M1158 3873 c7 -3 16 -2 19 1 4 3 -2 6 -13 5 -11 0 -14 -3 -6 -6z"/>
<path d="M1217 3843 c-16 -15 -5 -41 21 -52 l27 -11 -24 20 c-13 12 -21 26
-17 35 6 16 3 19 -7 8z"/>
<path d="M1135 3793 c-11 -3 -24 -9 -29 -13 -5 -5 -21 -7 -36 -4 -17 4 -31 0
-39 -10 -8 -9 -20 -16 -27 -16 -8 0 -14 -5 -14 -10 0 -12 35 4 45 20 3 6 15
10 26 10 11 0 18 -4 14 -9 -3 -5 0 -13 7 -17 7 -4 10 -4 6 1 -10 10 21 34 44
35 9 0 20 5 23 10 3 6 5 9 3 9 -2 -1 -12 -3 -23 -6z"/>
<path d="M1276 3782 c6 -4 10 -19 10 -34 -2 -35 2 -35 15 -1 7 20 6 28 -3 35
-16 10 -37 11 -22 0z"/>
<path d="M1340 3770 c24 -8 24 -8 2 -9 -26 -1 -40 -27 -24 -43 8 -8 9 -5 6 9
-4 16 0 21 20 25 30 6 30 5 15 -25 l-12 -22 20 20 c19 18 19 22 5 38 -8 9 -25
17 -36 16 -19 -1 -18 -2 4 -9z"/>
<path d="M1245 3759 c-11 -16 -1 -19 13 -3 7 8 8 14 3 14 -5 0 -13 -5 -16 -11z"/>
<path d="M958 3730 c-7 -11 -20 -20 -29 -20 -9 0 -21 -6 -27 -13 -8 -10 -6
-13 11 -14 17 -2 19 0 7 7 -12 8 -11 10 6 10 12 0 29 11 38 25 9 14 14 25 11
25 -3 0 -10 -9 -17 -20z"/>
<path d="M1423 3735 c0 -8 4 -12 9 -9 4 3 8 -2 8 -10 0 -9 5 -16 10 -16 7 0 7
6 0 19 -13 26 -27 34 -27 16z"/>
<path d="M1040 3723 c0 -6 6 -13 13 -15 16 -7 37 1 37 14 0 7 -4 7 -13 -1 -10
-8 -17 -7 -25 1 -8 8 -12 9 -12 1z"/>
<path d="M971 3707 c-1 -21 26 -34 41 -19 8 8 5 9 -10 6 -14 -4 -22 0 -25 13
-4 17 -5 17 -6 0z"/>
<path d="M1381 3707 c-1 -21 26 -34 41 -19 8 8 5 9 -10 6 -14 -4 -22 0 -25 13
-4 17 -5 17 -6 0z"/>
<path d="M1185 3700 c-3 -6 1 -7 9 -4 18 7 21 14 7 14 -6 0 -13 -4 -16 -10z"/>
<path d="M1476 3702 c6 -4 10 -19 10 -34 -2 -34 2 -35 14 -5 7 17 9 18 9 5 1
-10 6 -18 11 -18 6 0 4 13 -5 30 -9 17 -23 30 -33 30 -10 0 -13 -3 -6 -8z"/>
<path d="M1226 3661 c5 -35 4 -42 -7 -36 -11 6 -12 5 -2 -5 10 -11 9 -17 -4
-32 -16 -18 -16 -18 0 -12 13 5 17 1 17 -16 0 -14 -4 -19 -12 -14 -10 6 -10 4
-2 -7 6 -8 10 -22 8 -33 -1 -10 10 -30 25 -45 38 -37 45 -60 25 -82 -10 -11
-23 -19 -31 -19 -7 0 -13 -5 -13 -12 0 -6 3 -8 7 -5 3 4 12 2 19 -4 19 -15 54
-1 54 22 0 10 5 19 10 19 5 0 9 6 7 13 -1 8 7 11 23 9 37 -6 52 -22 45 -49 -7
-30 25 -64 54 -56 12 3 21 9 21 14 0 5 0 11 0 14 0 3 -2 5 -5 5 -11 -1 -35 29
-35 43 0 25 11 47 21 41 5 -3 9 -1 9 5 0 6 7 8 15 4 10 -3 15 0 13 8 -2 8 2
13 8 12 12 -2 12 26 0 45 -4 6 -5 16 -2 20 11 18 -99 46 -176 47 l-78 0 -1 55
c0 30 -5 64 -10 75 -6 14 -7 7 -3 -24z"/>
<path d="M945 3665 c0 -13 3 -21 8 -18 4 2 7 10 7 18 0 8 -3 16 -7 18 -5 3 -8
-5 -8 -18z"/>
<path d="M1100 3686 c0 -2 15 -6 34 -8 19 -2 32 0 30 4 -5 8 -64 12 -64 4z"/>
<path d="M1253 3683 c9 -2 23 -2 30 0 6 3 -1 5 -18 5 -16 0 -22 -2 -12 -5z"/>
<path d="M1068 3673 c7 -3 16 -2 19 1 4 3 -2 6 -13 5 -11 0 -14 -3 -6 -6z"/>
<path d="M1187 3659 c7 -7 15 -10 18 -7 3 3 -2 9 -12 12 -14 6 -15 5 -6 -5z"/>
<path d="M815 3650 l20 -9 -20 -1 -20 -1 20 -9 c25 -10 46 7 25 20 -8 5 -22 9
-30 9 -10 0 -8 -3 5 -9z"/>
<path d="M872 3652 c-9 -3 -7 -8 7 -19 26 -17 27 -40 4 -46 -17 -4 -17 -5 0
-6 10 0 20 5 23 12 7 19 -19 64 -34 59z"/>
<path d="M1550 3650 c-10 -7 -3 -8 25 -5 32 4 35 3 15 -4 l-25 -9 24 -1 c19
-1 22 -5 18 -22 -6 -21 -5 -21 12 -3 17 17 17 21 3 37 -17 19 -49 22 -72 7z"/>
<path d="M775 3640 c-3 -5 -17 -10 -30 -10 -13 0 -26 -4 -29 -9 -9 -15 46 -3
63 13 8 9 12 16 9 16 -4 0 -10 -4 -13 -10z"/>
<path d="M972 3624 c-41 -33 -73 -94 -75 -147 -2 -34 2 -43 22 -53 44 -23 53
-54 21 -81 -26 -23 -25 -28 6 -31 34 -3 56 15 49 39 -10 30 11 58 37 52 34 -9
48 -23 48 -48 0 -37 61 -50 79 -17 8 14 5 18 -11 19 -12 1 -25 8 -29 15 -12
18 -11 68 0 68 10 0 71 58 71 67 0 3 -8 15 -17 27 -25 30 -107 34 -190 8 -38
-12 -63 -16 -63 -9 0 13 48 76 75 99 32 27 14 21 -23 -8z"/>
<path d="M1520 3636 c0 -2 8 -10 18 -17 15 -13 16 -12 3 4 -13 16 -21 21 -21
13z"/>
<path d="M1420 3626 c0 -2 8 -10 18 -17 15 -13 16 -12 3 4 -13 16 -21 21 -21
13z"/>
<path d="M1675 3615 c2 -11 4 -23 4 -27 1 -5 16 -8 34 -9 31 -1 31 -1 7 -10
-25 -9 -25 -9 3 -5 30 4 31 2 17 -25 -6 -11 -7 -19 -3 -18 4 1 19 0 33 -1 l25
-2 -24 -7 c-14 -4 -26 -12 -27 -19 -1 -7 0 -8 3 -2 2 5 14 10 25 10 15 0 19
-5 15 -20 -3 -11 -1 -18 4 -14 5 3 9 1 9 -4 0 -5 10 -12 23 -15 22 -6 22 -6
-2 12 -14 11 -21 23 -17 30 10 16 -12 41 -36 41 -15 0 -18 5 -14 16 7 19 -10
44 -31 44 -8 0 -23 10 -33 23 -17 20 -18 21 -15 2z"/>
<path d="M1560 3611 c0 -6 4 -13 10 -16 6 -3 7 1 4 9 -7 18 -14 21 -14 7z"/>
<path d="M1640 3605 c-16 -19 -6 -45 17 -44 17 1 17 2 1 6 -21 5 -23 24 -6 41
7 7 9 12 6 12 -3 0 -11 -7 -18 -15z"/>
<path d="M721 3587 c-1 -21 26 -34 41 -19 8 8 5 9 -10 6 -14 -4 -22 0 -25 13
-4 17 -5 17 -6 0z"/>
<path d="M1507 3588 c2 -5 10 -8 18 -8 8 0 16 3 18 8 3 4 -5 7 -18 7 -13 0
-21 -3 -18 -7z"/>
<path d="M683 3584 c9 -3 15 -9 12 -14 -3 -5 -1 -11 4 -14 5 -4 8 2 7 11 -2
10 -11 19 -22 20 -16 2 -16 1 -1 -3z"/>
<path d="M823 3549 c-4 -14 -8 -17 -13 -8 -10 15 -62 -16 -105 -62 -29 -32
-29 -32 12 3 23 20 51 41 62 48 18 9 23 8 30 -12 8 -22 9 -21 15 10 8 34 23
40 46 20 12 -11 12 -10 1 5 -18 23 -42 22 -48 -4z"/>
<path d="M1537 3563 c-3 -5 5 -8 18 -8 13 0 21 3 18 8 -2 4 -10 7 -18 7 -8 0
-16 -3 -18 -7z"/>
<path d="M1690 3541 c0 -6 4 -13 10 -16 6 -3 7 1 4 9 -7 18 -14 21 -14 7z"/>
<path d="M1620 3537 c0 -3 16 -15 35 -27 34 -21 81 -77 73 -86 -7 -6 -101 37
-110 50 -5 6 -8 2 -8 -11 0 -13 -5 -23 -11 -23 -5 0 -7 6 -3 13 4 6 3 8 -1 4
-13 -11 -15 -37 -4 -37 6 0 7 -5 4 -10 -4 -6 -2 -16 3 -23 28 -34 7 -88 -30
-79 -22 5 -24 -21 -3 -38 21 -17 58 -5 70 22 22 51 70 28 70 -34 0 -29 4 -42
13 -41 6 2 12 -2 12 -7 0 -5 7 -10 15 -10 19 0 19 7 1 26 -16 15 -11 47 10 65
28 23 -10 152 -59 196 -27 25 -77 57 -77 50z"/>
<path d="M617 3503 c-3 -5 5 -8 18 -8 13 0 21 3 18 8 -2 4 -10 7 -18 7 -8 0
-16 -3 -18 -7z"/>
<path d="M1580 3506 c0 -2 7 -7 16 -10 8 -3 12 -2 9 4 -6 10 -25 14 -25 6z"/>
<path d="M787 3477 c-7 -17 -95 -49 -111 -40 -6 3 -8 3 -4 -2 4 -4 1 -13 -6
-21 -8 -7 -17 -34 -21 -60 -6 -40 -4 -50 11 -61 10 -7 14 -13 8 -13 -5 0 -4
-4 3 -8 10 -6 9 -14 -3 -36 -8 -16 -11 -32 -8 -35 4 -3 9 -1 11 6 2 7 12 9 20
6 13 -5 15 -2 10 11 -4 10 -3 15 3 11 12 -8 13 1 1 42 -7 22 -6 35 1 39 7 5 8
2 4 -7 -4 -8 -1 -6 8 4 19 24 46 16 74 -23 26 -34 34 -36 56 -14 22 21 20 32
-5 36 -12 2 -28 12 -35 23 -12 18 -11 26 6 57 17 32 17 37 4 42 -9 3 -14 12
-11 19 3 8 2 19 -3 26 -5 10 -9 9 -13 -2z"/>
<path d="M845 3465 c0 -13 3 -21 8 -18 4 2 7 10 7 18 0 8 -3 16 -7 18 -5 3 -8
-5 -8 -18z"/>
<path d="M1172 3448 c-7 -7 -12 -16 -12 -22 0 -5 6 -2 13 9 10 13 21 16 41 11
18 -4 25 -3 21 4 -8 14 -48 13 -63 -2z"/>
<path d="M611 3433 c17 -28 5 -41 -24 -24 -21 13 -21 12 -5 -4 18 -19 48 -14
48 8 0 8 -7 21 -17 28 -15 13 -15 12 -2 -8z"/>
<path d="M1817 3420 c6 -23 -15 -27 -36 -7 -10 10 -11 9 -6 -4 3 -9 21 -20 38
-24 32 -7 32 -7 7 -15 -23 -8 -22 -8 8 -7 32 1 33 2 15 17 -10 8 -17 22 -15
32 2 9 -1 19 -7 22 -5 3 -7 -3 -4 -14z"/>
<path d="M1241 3414 c0 -11 3 -14 6 -6 3 7 2 16 -1 19 -3 4 -6 -2 -5 -13z"/>
<path d="M1497 3402 c-10 -10 -17 -23 -17 -28 0 -4 7 2 16 14 17 25 43 28 64
10 12 -11 12 -10 1 5 -17 22 -44 22 -64 -1z"/>
<path d="M837 3403 c-11 -11 -8 -48 5 -61 7 -7 21 -12 33 -11 17 1 16 2 -5 8
-20 6 -25 14 -25 39 0 18 0 32 -1 32 0 0 -4 -3 -7 -7z"/>
<path d="M911 3374 c0 -11 3 -14 6 -6 3 7 2 16 -1 19 -3 4 -6 -2 -5 -13z"/>
<path d="M1198 3373 c7 -3 16 -2 19 1 4 3 -2 6 -13 5 -11 0 -14 -3 -6 -6z"/>
<path d="M567 3363 c-3 -5 5 -8 18 -8 13 0 21 3 18 8 -2 4 -10 7 -18 7 -8 0
-16 -3 -18 -7z"/>
<path d="M1499 3347 c7 -10 21 -17 31 -17 10 0 24 7 31 17 13 15 12 15 -8 2
-20 -12 -26 -12 -45 0 -21 13 -22 13 -9 -2z"/>
<path d="M1190 3335 c0 -9 -7 -18 -15 -21 -30 -12 -14 -24 31 -24 l46 0 -24
29 c-26 34 -38 38 -38 16z"/>
<path d="M1790 3343 c0 -6 7 -16 15 -23 12 -10 19 -10 28 -1 9 9 16 6 30 -11
18 -23 18 -22 1 9 -16 29 -19 30 -31 15 -12 -16 -14 -16 -28 2 -8 11 -15 15
-15 9z"/>
<path d="M1026 3305 c-16 -25 -16 -25 16 -25 51 0 64 14 34 33 -32 21 -31 22
-50 -8z"/>
<path d="M1240 3323 c0 -9 42 -22 54 -17 27 10 18 19 -19 19 -19 0 -35 -1 -35
-2z"/>
<path d="M1327 3312 c-25 -28 -21 -32 28 -32 l46 0 -18 25 c-22 29 -34 31 -56
7z"/>
<path d="M995 3310 c-3 -5 -18 -10 -33 -10 -22 -1 -24 -2 -10 -10 19 -12 44
-4 52 16 6 16 0 19 -9 4z"/>
<path d="M876 3280 c-14 -29 -14 -30 7 -29 12 1 32 4 45 8 l24 6 -31 22 -30
23 -15 -30z"/>
<path d="M1481 3289 c-28 -23 -28 -22 22 -36 35 -10 38 -10 32 5 -4 9 -10 25
-12 35 -7 22 -12 21 -42 -4z"/>
<path d="M555 3269 c-4 -6 -5 -12 -2 -15 2 -3 7 2 10 11 7 17 1 20 -8 4z"/>
<path d="M622 3258 c7 -15 15 -23 17 -17 2 6 -4 18 -13 27 -15 15 -15 15 -4
-10z"/>
<path d="M1775 3269 c-4 -6 -5 -12 -2 -15 2 -3 7 2 10 11 7 17 1 20 -8 4z"/>
<path d="M1843 3256 c8 -16 14 -21 19 -13 5 8 8 5 8 -7 0 -11 3 -17 6 -13 3 3
3 15 -1 27 -4 12 -9 19 -12 16 -4 -3 -12 -1 -19 5 -10 8 -11 6 -1 -15z"/>
<path d="M744 3242 c-6 -4 -15 -17 -18 -30 -8 -23 -8 -23 30 -7 55 23 57 27
19 39 -11 3 -25 2 -31 -2z"/>
<path d="M1163 3243 c20 -2 54 -2 75 0 20 2 3 4 -38 4 -41 0 -58 -2 -37 -4z"/>
<path d="M1616 3237 c-17 -13 -15 -15 23 -30 53 -22 54 -21 40 6 -20 38 -36
44 -63 24z"/>
<path d="M1008 3233 c-16 -2 -28 -9 -28 -14 0 -6 4 -8 9 -5 5 4 36 9 68 12 32
4 60 8 62 10 5 5 -74 2 -111 -3z"/>
<path d="M1308 3233 c12 -2 32 -2 45 0 12 2 2 4 -23 4 -25 0 -35 -2 -22 -4z"/>
<path d="M1770 3233 c0 -6 8 -17 18 -24 16 -13 16 -13 2 6 -8 11 -16 22 -17
24 -2 2 -3 0 -3 -6z"/>
<path d="M562 3214 c10 -10 20 -16 22 -13 3 3 -5 11 -17 18 -21 13 -21 12 -5
-5z"/>
<path d="M1405 3220 c17 -4 39 -8 50 -8 16 0 15 2 -5 8 -14 4 -36 8 -50 8 -22
0 -22 -1 5 -8z"/>
<path d="M610 3210 c-9 -6 -10 -10 -3 -10 6 0 15 5 18 10 8 12 4 12 -15 0z"/>
<path d="M850 3191 c-148 -50 -150 -51 -141 -69 25 -53 41 -77 50 -78 7 -2 7
0 2 2 -5 3 -7 18 -5 33 4 21 0 30 -18 38 -22 9 -22 10 8 24 16 8 63 25 104 38
126 39 128 39 105 40 -11 0 -58 -13 -105 -28z"/>
<path d="M1160 3205 l-35 -13 30 -12 c40 -16 54 -15 94 2 l33 15 -28 6 c-16 3
-36 8 -44 11 -8 2 -31 -1 -50 -9z"/>
<path d="M1825 3210 c-16 -7 -17 -9 -3 -9 9 -1 20 4 23 9 7 11 7 11 -20 0z"/>
<path d="M1570 3176 c52 -18 104 -36 115 -40 11 -4 7 0 -9 9 -35 20 -163 65
-185 65 -9 0 27 -15 79 -34z"/>
<path d="M1849 3193 c-13 -16 -12 -17 4 -4 16 13 21 21 13 21 -2 0 -10 -8 -17
-17z"/>
<path d="M578 3173 c7 -3 16 -2 19 1 4 3 -2 6 -13 5 -11 0 -14 -3 -6 -6z"/>
<path d="M890 3160 c-24 -19 -24 -20 -3 -20 12 0 27 -2 35 -5 7 -3 29 6 48 20
l34 25 -45 0 c-28 0 -53 -7 -69 -20z"/>
<path d="M1435 3155 c16 -14 38 -23 50 -20 11 2 29 4 40 4 40 2 -37 41 -80 41
l-40 -1 30 -24z"/>
<path d="M658 3163 c7 -3 16 -2 19 1 4 3 -2 6 -13 5 -11 0 -14 -3 -6 -6z"/>
<path d="M1083 3133 c9 -2 25 -2 35 0 9 3 1 5 -18 5 -19 0 -27 -2 -17 -5z"/>
<path d="M1293 3133 c9 -2 23 -2 30 0 6 3 -1 5 -18 5 -16 0 -22 -2 -12 -5z"/>
<path d="M1018 3123 c7 -3 16 -2 19 1 4 3 -2 6 -13 5 -11 0 -14 -3 -6 -6z"/>
<path d="M1378 3123 c7 -3 16 -2 19 1 4 3 -2 6 -13 5 -11 0 -14 -3 -6 -6z"/>
<path d="M1085 3109 c-259 -30 -506 -168 -671 -373 -453 -563 -174 -1404 527
-1596 535 -146 1093 178 1241 720 20 73 23 108 23 250 0 197 -17 276 -95 435
-153 315 -445 521 -800 565 -94 11 -123 11 -225 -1z m356 -48 c386 -100 676
-418 735 -804 37 -238 -17 -481 -150 -681 -336 -504 -1036 -593 -1487 -188
-124 111 -233 286 -285 458 -26 82 -28 102 -28 264 0 162 2 181 28 265 113
370 401 628 779 701 100 19 308 11 408 -15z"/>
<path d="M1068 2980 c-386 -70 -674 -352 -739 -725 -16 -96 -6 -291 20 -380
69 -232 231 -431 441 -539 344 -178 739 -124 1018 139 126 119 198 234 249
402 23 78 26 104 26 233 0 129 -3 155 -26 233 -95 311 -327 537 -632 618 -89
23 -279 34 -357 19z m357 -44 c33 -9 101 -37 151 -61 385 -186 573 -622 442
-1025 -94 -290 -346 -515 -648 -576 -135 -27 -305 -16 -436 28 -278 94 -494
323 -566 601 -30 114 -30 309 1 420 23 89 84 216 136 287 49 67 181 188 248
228 74 45 183 88 265 107 89 19 323 14 407 -9z"/>
<path d="M1499 2749 l-94 -101 -77 16 c-98 20 -170 20 -261 0 l-71 -17 -93 97
c-51 53 -97 96 -101 96 -21 0 -153 -104 -214 -168 -144 -153 -218 -341 -218
-557 0 -108 23 -223 61 -310 23 -53 91 -161 131 -208 l23 -28 58 59 58 59 -41
48 c-70 81 -120 199 -135 321 -7 55 9 192 28 249 l12 35 42 -42 42 -43 -10
-50 c-21 -106 15 -270 84 -377 52 -80 145 -163 229 -203 40 -19 78 -35 85 -35
9 0 13 -21 13 -75 l0 -75 80 0 79 0 3 62 3 63 50 7 50 7 112 -111 113 -112 47
23 c199 96 362 302 424 536 29 111 29 288 0 400 -55 211 -197 401 -382 513
l-36 22 -94 -101z m-483 -129 c83 32 219 37 314 11 l75 -20 55 58 c30 31 74
74 97 95 40 36 43 37 70 22 53 -28 160 -124 208 -187 62 -82 119 -203 145
-303 52 -205 6 -465 -113 -634 -17 -25 -35 -51 -39 -56 -4 -7 -25 6 -52 33
l-44 43 33 47 c152 212 168 474 43 714 -40 76 -159 217 -185 217 -5 0 -32 -24
-61 -53 l-52 -52 72 -74 71 -75 -43 -36 -43 -37 -69 70 -69 70 -114 -119 -113
-119 -121 120 -121 120 -54 -54 c-95 -94 -137 -199 -132 -331 2 -65 8 -90 34
-143 40 -80 122 -159 207 -198 l60 -27 3 199 2 199 140 0 140 0 0 -40 0 -40
-85 0 -85 0 0 -55 0 -55 80 0 80 0 0 -45 0 -45 -80 0 -80 0 0 -68 0 -69 53 8
c88 12 156 43 238 111 l46 37 36 -37 c21 -21 37 -43 37 -50 0 -20 -101 -93
-178 -129 -45 -21 -103 -38 -152 -45 l-80 -12 0 -58 0 -58 -55 0 -55 0 0 66
c0 60 -2 66 -22 72 -13 3 -59 23 -102 45 -272 137 -376 474 -223 727 11 19 51
67 89 106 l68 70 -58 57 -58 58 -66 -68 c-142 -147 -209 -310 -209 -507 -1
-125 38 -242 115 -350 l45 -63 -38 -37 -38 -37 -32 38 c-47 57 -107 179 -132
269 -32 111 -32 275 0 394 47 176 177 362 322 459 l60 40 95 -99 c87 -90 98
-98 120 -90z m679 -52 c70 -77 140 -215 161 -318 23 -106 14 -243 -21 -338
-15 -39 -33 -76 -41 -83 -10 -8 -61 38 -246 226 -128 131 -235 242 -237 247
-2 6 25 39 60 74 l63 64 34 -33 c18 -17 45 -51 60 -74 l26 -41 61 51 c33 28
62 52 64 54 9 7 -27 59 -76 112 l-53 55 32 33 c18 18 37 33 44 33 7 0 38 -28
69 -62z m-645 -756 c0 -40 -2 -43 -22 -36 -100 31 -206 166 -224 284 l-6 45
126 -125 c123 -121 126 -126 126 -168z"/>
<path d="M1107 2532 l-28 -7 64 -63 64 -63 53 61 c29 33 50 64 46 67 -9 9
-166 13 -199 5z m153 -30 c0 -5 -14 -21 -30 -37 l-30 -29 -38 37 -37 37 68 0
c37 0 67 -4 67 -8z"/>
<path d="M1428 3113 c7 -3 16 -2 19 1 4 3 -2 6 -13 5 -11 0 -14 -3 -6 -6z"/>
<path d="M1663 3108 c-6 -7 -10 -21 -10 -30 0 -23 23 -6 30 22 6 22 -5 26 -20
8z"/>
<path d="M1545 3080 c27 -12 43 -12 25 0 -8 5 -22 9 -30 9 -10 0 -8 -3 5 -9z"/>
<path d="M1620 3050 c8 -5 20 -10 25 -10 6 0 3 5 -5 10 -8 5 -19 10 -25 10 -5
0 -3 -5 5 -10z"/>
<path d="M7920 2495 l0 -85 85 0 85 0 0 85 0 85 -85 0 -85 0 0 -85z"/>
<path d="M2728 2564 c-5 -4 -8 -207 -8 -451 l0 -443 60 0 60 0 0 190 0 190
180 0 c260 0 265 -4 279 -224 5 -74 12 -140 16 -146 7 -11 145 -14 145 -3 0 4
-9 16 -19 27 -16 17 -21 42 -26 141 -8 150 -20 199 -56 229 -16 13 -33 26 -39
28 -7 2 11 26 38 53 42 42 52 59 62 108 27 130 -25 234 -139 279 -51 19 -79
22 -301 26 -135 2 -248 1 -252 -4z m512 -119 c42 -22 62 -67 62 -138 0 -69
-19 -102 -73 -129 -29 -15 -62 -18 -211 -18 l-178 0 0 150 0 150 185 0 c147 0
192 -3 215 -15z"/>
<path d="M4867 2563 c-4 -3 -7 -206 -7 -450 l0 -443 55 0 55 0 0 450 0 450
-48 0 c-27 0 -52 -3 -55 -7z"/>
<path d="M7210 2483 c0 -49 -3 -118 -7 -155 l-6 -68 -37 34 c-49 44 -99 60
-170 53 -106 -9 -179 -66 -221 -174 -30 -76 -33 -241 -6 -319 24 -68 68 -134
110 -162 89 -59 225 -52 297 17 l40 38 0 -39 0 -38 85 0 85 0 0 450 0 450 -85
0 -85 0 0 -87z m-72 -303 c49 -30 72 -88 72 -185 0 -64 -5 -90 -22 -125 -57
-110 -200 -106 -250 8 -29 64 -29 184 -1 239 40 78 130 106 201 63z"/>
<path d="M8640 2409 l0 -162 -43 40 c-55 51 -103 67 -178 60 -69 -6 -136 -41
-174 -92 -64 -84 -90 -235 -61 -358 20 -87 38 -122 89 -175 88 -91 246 -95
334 -10 l33 32 0 -37 0 -37 85 0 85 0 0 450 0 450 -85 0 -85 0 0 -161z m-50
-244 c39 -38 54 -85 54 -175 1 -57 -4 -85 -20 -115 -61 -117 -202 -113 -254 7
-19 44 -22 65 -18 133 7 134 55 190 156 182 41 -3 59 -10 82 -32z"/>
<path d="M5369 2340 c-40 -12 -76 -39 -98 -73 l-21 -32 0 48 0 47 -85 0 -85 0
0 -330 0 -330 90 0 90 0 0 234 0 234 26 31 c22 27 32 31 76 31 103 0 108 -15
108 -306 l0 -224 85 0 85 0 0 215 c0 232 6 267 51 299 24 16 83 21 114 10 8
-4 23 -21 33 -38 14 -26 17 -67 20 -258 l4 -228 85 0 84 0 -3 263 c-3 246 -4
264 -25 302 -28 53 -60 81 -112 100 -91 32 -197 7 -242 -57 l-22 -30 -41 41
c-22 22 -54 45 -69 50 -32 13 -110 13 -148 1z"/>
<path d="M6293 2340 c-89 -21 -151 -85 -172 -177 l-9 -43 84 0 c66 0 84 3 84
14 0 8 12 28 26 45 24 29 31 31 90 31 73 0 104 -20 104 -68 0 -43 -26 -58
-120 -71 -166 -24 -224 -51 -262 -124 -26 -51 -29 -147 -6 -192 62 -117 223
-140 350 -50 l46 34 6 -35 7 -34 94 0 c52 0 95 3 95 7 0 3 -8 15 -17 26 -16
17 -19 49 -23 266 -5 268 -9 288 -67 329 -62 44 -215 65 -310 42z m207 -415
c0 -57 -3 -68 -30 -98 -28 -32 -84 -57 -127 -57 -11 0 -32 9 -47 21 -21 16
-26 29 -26 63 0 59 27 82 120 102 41 8 81 19 89 24 9 5 17 10 19 10 1 0 2 -29
2 -65z"/>
<path d="M7753 2331 c-26 -12 -52 -35 -70 -62 l-28 -43 -3 52 -3 52 -85 0 -84
0 0 -330 0 -330 85 0 85 0 0 183 c0 100 5 198 10 218 5 19 23 48 40 64 26 25
40 30 95 33 l65 4 0 89 0 89 -32 0 c-18 0 -52 -9 -75 -19z"/>
<path d="M3750 2326 c-148 -40 -227 -173 -218 -369 9 -198 112 -307 288 -306
124 0 197 39 250 132 43 76 41 87 -19 87 -40 0 -51 -4 -56 -19 -19 -60 -97
-111 -167 -111 -55 1 -119 30 -145 66 -22 31 -43 95 -43 132 l0 22 235 0 235
0 0 45 c0 62 -19 142 -46 196 -56 112 -181 161 -314 125z m166 -105 c41 -25
73 -78 80 -135 l7 -46 -183 0 -183 0 6 42 c7 52 51 115 97 139 47 25 135 25
176 0z"/>
<path d="M4359 2326 c-87 -23 -141 -85 -151 -171 -3 -29 -2 -30 42 -33 45 -3
45 -3 60 40 21 60 66 88 142 88 67 0 122 -19 137 -48 15 -28 14 -94 -1 -115
-9 -12 -45 -21 -128 -32 -150 -21 -202 -38 -239 -81 -57 -64 -65 -172 -18
-241 29 -44 108 -83 167 -83 66 0 142 25 193 64 l44 33 12 -33 c15 -41 37 -54
95 -56 57 -1 66 6 66 47 0 31 -3 34 -32 37 l-33 3 -5 230 c-3 140 -10 240 -17
256 -38 87 -197 132 -334 95z m224 -499 c-27 -46 -106 -86 -170 -87 -68 0 -99
13 -118 49 -25 49 -19 89 18 126 27 27 44 34 107 44 41 6 98 17 125 24 l50 12
3 -68 c2 -52 -1 -76 -15 -100z"/>
<path d="M7920 1995 l0 -335 85 0 85 0 0 335 0 335 -85 0 -85 0 0 -335z"/>
</g>
</svg>
